Normalized EMG Linear Envelopes
nRows=43
nColumns=17

endheader
time	1_BAD	2_Glutmax_R	3_Vaslat_R	4_Recfem_R	5_Bifem_R	6_Gasmed_R	7_BAD	8_Soleus_R	9_Tibant_R	10_Glutmax_L	11_Vaslat_L	12_Recfem_L	13_Bifem_L	14_Gasmed_L	15_Soleus_L	16_Tibant_L	
15.070	  1.000000	  0.448080	  0.123045	  1.000000	  0.048033	  0.283894	  1.000000	  0.006198	  0.006582	  0.787566	  0.141044	  0.102141	 -0.001701	  0.155644	  0.170511	  0.081954	
15.071	  0.968830	  0.434100	  0.119980	  0.969383	  0.048180	  0.284851	  0.969722	  0.007546	  0.011311	  0.763602	  0.137938	  0.100948	 -0.000962	  0.155775	  0.170320	  0.082075	
15.072	  0.937559	  0.420065	  0.116908	  0.938733	  0.048336	  0.285757	  0.939321	  0.008921	  0.015987	  0.739541	  0.134844	  0.099828	 -0.000218	  0.155934	  0.170236	  0.082209	
15.073	  0.906232	  0.405996	  0.113834	  0.908095	  0.048500	  0.286608	  0.908842	  0.010322	  0.020604	  0.715421	  0.131768	  0.098783	  0.000530	  0.156121	  0.170259	  0.082355	
15.074	  0.874894	  0.391915	  0.110760	  0.877515	  0.048668	  0.287399	  0.878331	  0.011747	  0.025157	  0.691279	  0.128713	  0.097814	  0.001280	  0.156337	  0.170388	  0.082511	
15.075	  0.843592	  0.377840	  0.107692	  0.847036	  0.048840	  0.288128	  0.847833	  0.013194	  0.029640	  0.667151	  0.125686	  0.096924	  0.002030	  0.156582	  0.170624	  0.082675	
15.076	  0.812370	  0.363795	  0.104632	  0.816705	  0.049012	  0.288789	  0.817392	  0.014661	  0.034048	  0.643077	  0.122691	  0.096114	  0.002780	  0.156857	  0.170966	  0.082846	
15.077	  0.781274	  0.349797	  0.101584	  0.786564	  0.049184	  0.289379	  0.787053	  0.016146	  0.038378	  0.619092	  0.119733	  0.095384	  0.003527	  0.157162	  0.171412	  0.083023	
15.078	  0.750347	  0.335868	  0.098551	  0.756656	  0.049351	  0.289895	  0.756860	  0.017646	  0.042625	  0.595232	  0.116815	  0.094735	  0.004271	  0.157496	  0.171961	  0.083202	
15.079	  0.719632	  0.322028	  0.095537	  0.727025	  0.049513	  0.290334	  0.726855	  0.019159	  0.046785	  0.571535	  0.113943	  0.094169	  0.005010	  0.157859	  0.172610	  0.083383	
15.080	  0.689173	  0.308295	  0.092545	  0.697711	  0.049665	  0.290691	  0.697081	  0.020684	  0.050856	  0.548035	  0.111120	  0.093683	  0.005742	  0.158252	  0.173358	  0.083563	
15.081	  0.659011	  0.294689	  0.089578	  0.668755	  0.049805	  0.290964	  0.667580	  0.022217	  0.054835	  0.524768	  0.108351	  0.093279	  0.006466	  0.158674	  0.174200	  0.083741	
15.082	  0.629185	  0.281229	  0.086638	  0.640196	  0.049930	  0.291150	  0.638392	  0.023756	  0.058720	  0.501767	  0.105638	  0.092954	  0.007182	  0.159123	  0.175134	  0.083914	
15.083	  0.599735	  0.267931	  0.083729	  0.612071	  0.050038	  0.291246	  0.609557	  0.025298	  0.062508	  0.479065	  0.102987	  0.092709	  0.007886	  0.159600	  0.176156	  0.084080	
15.084	  0.570698	  0.254813	  0.080852	  0.584417	  0.050124	  0.291251	  0.581111	  0.026841	  0.066200	  0.456694	  0.100398	  0.092539	  0.008579	  0.160103	  0.177260	  0.084239	
15.085	  0.542111	  0.241892	  0.078011	  0.557269	  0.050186	  0.291161	  0.553092	  0.028383	  0.069794	  0.434685	  0.097877	  0.092445	  0.009259	  0.160631	  0.178444	  0.084387	
15.086	  0.514007	  0.229184	  0.075206	  0.530659	  0.050221	  0.290975	  0.525534	  0.029920	  0.073290	  0.413068	  0.095424	  0.092423	  0.009924	  0.161184	  0.179701	  0.084522	
15.087	  0.486420	  0.216703	  0.072440	  0.504620	  0.050224	  0.290690	  0.498470	  0.031451	  0.076688	  0.391870	  0.093044	  0.092471	  0.010574	  0.161758	  0.181027	  0.084644	
15.088	  0.459381	  0.204465	  0.069714	  0.479180	  0.050193	  0.290306	  0.471933	  0.032971	  0.079989	  0.371119	  0.090737	  0.092584	  0.011207	  0.162353	  0.182414	  0.084750	
15.089	  0.432918	  0.192482	  0.067030	  0.454368	  0.050124	  0.289820	  0.445952	  0.034479	  0.083195	  0.350840	  0.088505	  0.092760	  0.011822	  0.162967	  0.183859	  0.084838	
15.090	  0.407060	  0.180767	  0.064390	  0.430210	  0.050014	  0.289233	  0.420555	  0.035972	  0.086305	  0.331056	  0.086350	  0.092996	  0.012419	  0.163598	  0.185353	  0.084907	
15.091	  0.381831	  0.169332	  0.061794	  0.406729	  0.049860	  0.288542	  0.395768	  0.037448	  0.089324	  0.311791	  0.084274	  0.093285	  0.012995	  0.164244	  0.186890	  0.084955	
15.092	  0.357256	  0.158188	  0.059243	  0.383947	  0.049657	  0.287747	  0.371616	  0.038903	  0.092252	  0.293066	  0.082277	  0.093625	  0.013551	  0.164902	  0.188464	  0.084981	
15.093	  0.333355	  0.147344	  0.056737	  0.361886	  0.049404	  0.286849	  0.348121	  0.040335	  0.095092	  0.274898	  0.080360	  0.094011	  0.014086	  0.165569	  0.190068	  0.084982	
15.094	  0.310149	  0.136811	  0.054279	  0.340561	  0.049095	  0.285846	  0.325304	  0.041742	  0.097847	  0.257306	  0.078522	  0.094437	  0.014598	  0.166244	  0.191693	  0.084959	
15.095	  0.287654	  0.126597	  0.051866	  0.319990	  0.048729	  0.284738	  0.303182	  0.043121	  0.100521	  0.240305	  0.076765	  0.094900	  0.015087	  0.166923	  0.193333	  0.084909	
15.096	  0.265887	  0.116708	  0.049501	  0.300187	  0.048303	  0.283527	  0.281772	  0.044470	  0.103117	  0.223910	  0.075088	  0.095392	  0.015553	  0.167603	  0.194980	  0.084831	
15.097	  0.244861	  0.107151	  0.047182	  0.281162	  0.047813	  0.282213	  0.261088	  0.045786	  0.105639	  0.208133	  0.073490	  0.095910	  0.015994	  0.168282	  0.196627	  0.084724	
15.098	  0.224587	  0.097931	  0.044911	  0.262925	  0.047257	  0.280796	  0.241143	  0.047068	  0.108090	  0.192984	  0.071970	  0.096448	  0.016411	  0.168955	  0.198266	  0.084587	
15.099	  0.205074	  0.089054	  0.042686	  0.245485	  0.046632	  0.279278	  0.221947	  0.048312	  0.110475	  0.178472	  0.070528	  0.097000	  0.016803	  0.169621	  0.199889	  0.084420	
15.100	  0.186331	  0.080523	  0.040507	  0.228846	  0.045936	  0.277661	  0.203509	  0.049517	  0.112797	  0.164604	  0.069162	  0.097561	  0.017169	  0.170275	  0.201489	  0.084220	
15.101	  0.168362	  0.072341	  0.038374	  0.213013	  0.045168	  0.275946	  0.185833	  0.050681	  0.115062	  0.151386	  0.067871	  0.098125	  0.017510	  0.170913	  0.203059	  0.083989	
15.102	  0.151172	  0.064511	  0.036286	  0.197986	  0.044324	  0.274135	  0.168926	  0.051803	  0.117273	  0.138821	  0.066652	  0.098686	  0.017825	  0.171533	  0.204592	  0.083724	
15.103	  0.134761	  0.057032	  0.034244	  0.183765	  0.043405	  0.272230	  0.152789	  0.052880	  0.119435	  0.126911	  0.065503	  0.099240	  0.018115	  0.172131	  0.206080	  0.083425	
15.104	  0.119130	  0.049906	  0.032246	  0.170347	  0.042408	  0.270235	  0.137423	  0.053911	  0.121553	  0.115657	  0.064423	  0.099780	  0.018378	  0.172704	  0.207518	  0.083093	
15.105	  0.104277	  0.043132	  0.030291	  0.157730	  0.041333	  0.268151	  0.122826	  0.054894	  0.123630	  0.105057	  0.063409	  0.100302	  0.018615	  0.173247	  0.208897	  0.082725	
15.106	  0.090198	  0.036710	  0.028380	  0.145905	  0.040179	  0.265982	  0.108996	  0.055828	  0.125671	  0.095108	  0.062458	  0.100801	  0.018827	  0.173756	  0.210214	  0.082323	
15.107	  0.076888	  0.030637	  0.026511	  0.134866	  0.038947	  0.263731	  0.095927	  0.056712	  0.127681	  0.085806	  0.061568	  0.101271	  0.019013	  0.174230	  0.211462	  0.081886	
15.108	  0.064339	  0.024911	  0.024683	  0.124602	  0.037636	  0.261402	  0.083614	  0.057546	  0.129662	  0.077145	  0.060735	  0.101707	  0.019173	  0.174663	  0.212636	  0.081414	
15.109	  0.052543	  0.019528	  0.022898	  0.115102	  0.036248	  0.258998	  0.072048	  0.058327	  0.131621	  0.069118	  0.059957	  0.102105	  0.019308	  0.175053	  0.213731	  0.080906	
15.110	  0.041490	  0.014486	  0.021153	  0.106354	  0.034785	  0.256523	  0.061219	  0.059056	  0.133559	  0.061716	  0.059231	  0.102461	  0.019419	  0.175396	  0.214744	  0.080364	
15.111	  0.031169	  0.009779	  0.019450	  0.098342	  0.033247	  0.253981	  0.051118	  0.059731	  0.135481	  0.054928	  0.058552	  0.102770	  0.019505	  0.175689	  0.215671	  0.079786	
15.112	  0.021566	  0.005404	  0.017786	  0.091052	  0.031637	  0.251377	  0.041730	  0.060353	  0.137390	  0.048744	  0.057919	  0.103029	  0.019567	  0.175929	  0.216509	  0.079174	
